<?xml version="1.0" encoding="UTF-8"?><svg xmlns="http://www.w3.org/2000/svg" width="48" height="48" viewBox="0 0 48 48"><title>favicon 48x48</title><style>@media (prefers-color-scheme: dark) { svg { filter: invert(1); } }</style><path fill="#100100100" d="M0 0h48v15h-48z M0 15h9v1h-9z M13 15h5v1h-5z M20 15h9v1h-9z M30 15h4v1h-4z M35 15h13v1h-13z M0 16h7v1h-7z M15 16h3v1h-3z M21 16h7v1h-7z M31 16h2v32h-2z M36 16h12v14h-12z M0 17h6v1h-6z M16 17h2v1h-2z M21 17h6v1h-6z M0 18h5v30h-5z M9 18h4v4h-4z M17 18h1v30h-1z M22 18h5v1h-5z M30 18h1v30h-1z M8 19h1v2h-1z M13 19h1v4h-1z M16 19h1v6h-1z M18 19h1v29h-1z M23 19h3v1h-3z M14 20h2v3h-2z M19 20h1v28h-1z M23 20h2v1h-2z M29 20h1v28h-1z M24 21h1v1h-1z M28 21h1v27h-1z M5 22h1v6h-1z M12 22h1v1h-1z M20 22h1v26h-1z M15 23h1v1h-1z M27 23h1v25h-1z M6 24h2v4h-2z M21 24h1v24h-1z M8 25h3v4h-3z M26 25h1v23h-1z M11 26h2v4h-2z M22 26h1v22h-1z M13 27h1v1h-1z M9 29h2v1h-2z M16 30h1v18h-1z M44 30h4v18h-4z M5 31h1v17h-1z M15 31h1v17h-1z M6 32h2v16h-2z M13 32h2v16h-2z M25 32h1v16h-1z M33 32h1v16h-1z M43 32h1v16h-1z M8 33h5v15h-5z M23 33h2v15h-2z M34 33h9v15h-9z"/><path fill="#e0e0e0" d="M9 15h4v1h-4z M33 16h1v16h-1z M27 17h1v1h-1z M5 18h1v1h-1z M16 18h1v1h-1z M15 19h1v1h-1z M22 19h1v1h-1z M25 20h1v1h-1z M8 21h1v1h-1z M20 21h1v1h-1z M23 21h1v1h-1z M11 22h1v1h-1z M24 22h1v1h-1z M27 22h1v1h-1z M6 23h1v1h-1z M21 23h1v1h-1z M15 24h1v1h-1z M26 24h1v1h-1z M11 25h1v1h-1z M22 25h1v1h-1z M13 26h1v1h-1z M7 28h1v1h-1z M13 28h1v1h-1z M8 29h1v1h-1z M5 30h1v1h-1z M43 30h1v2h-1z M6 31h1v1h-1z M8 32h5v1h-5z M23 32h2v1h-2z M34 32h9v1h-9z"/><path fill="#100e0100" d="M18 15h2v1h-2z M29 15h1v1h-1z M34 15h1v1h-1z M30 17h1v1h-1z M18 18h1v1h-1z M16 29h1v1h-1z"/><path fill="#a0a0a0" d="M7 16h1v1h-1z M35 16h1v1h-1z M6 17h1v1h-1z M15 17h1v1h-1z M13 18h1v1h-1z M21 18h1v1h-1z M5 19h1v2h-1z M26 19h1v1h-1z M22 20h1v1h-1z M25 21h1v1h-1z M9 22h1v1h-1z M21 22h1v1h-1z M23 22h1v1h-1z M13 23h1v1h-1z M26 23h1v1h-1z M22 24h1v1h-1z M25 25h1v1h-1z M13 29h1v1h-1z M10 30h2v1h-2z"/><path fill="#606060" d="M8 16h1v1h-1z M19 16h1v1h-1z M29 16h1v1h-1z M34 16h1v1h-1z M9 17h1v1h-1z M12 17h1v1h-1z M20 17h1v1h-1z M19 18h1v1h-1z M27 18h1v1h-1z M28 19h1v1h-1z M20 20h1v1h-1z M7 21h1v1h-1z M27 21h1v1h-1z M8 22h1v1h-1z M7 23h1v1h-1z M23 26h1v5h-1z M5 29h1v1h-1z M12 30h1v1h-1z M36 30h7v2h-7z M8 31h1v1h-1z M24 31h1v1h-1z M34 31h2v1h-2z"/><path fill="#404040" d="M9 16h4v1h-4z M29 17h1v1h-1z M7 18h1v1h-1z M14 18h2v1h-2z M21 19h1v1h-1z M26 20h1v1h-1z M22 21h1v1h-1z M25 22h2v1h-2z M10 23h2v2h-2z M22 23h1v1h-1z M14 24h1v1h-1z M15 25h1v1h-1z M23 25h1v1h-1z M14 26h1v3h-1z M15 29h1v1h-1z M6 30h1v1h-1z M8 30h1v1h-1z M35 30h1v1h-1z M9 31h1v1h-1z M12 31h1v1h-1z"/><path fill="#808080" d="M13 16h1v1h-1z M18 16h1v1h-1z M28 16h1v1h-1z M10 17h2v1h-2z M35 17h1v13h-1z M7 19h1v2h-1z M24 23h1v1h-1z M9 24h1v1h-1z M6 28h1v1h-1z M7 29h1v1h-1z M9 30h1v1h-1z M13 31h1v1h-1z M23 31h1v1h-1z"/><path fill="#c0c0c0" d="M14 16h1v1h-1z M20 16h1v1h-1z M30 16h1v1h-1z M18 17h1v1h-1z M29 18h1v1h-1z M14 19h1v1h-1z M19 19h1v1h-1z M28 20h1v1h-1z M5 21h1v1h-1z M10 22h1v1h-1z M8 24h1v1h-1z M12 25h1v1h-1z M16 26h1v3h-1z M25 26h1v6h-1z M15 30h1v1h-1z M14 31h1v1h-1z"/><path fill="#202020" d="M7 17h2v1h-2z M13 17h1v1h-1z M19 17h1v1h-1z M28 17h1v2h-1z M34 17h1v14h-1z M6 18h1v4h-1z M20 18h1v2h-1z M27 19h1v2h-1z M21 20h1v2h-1z M26 21h1v1h-1z M7 22h1v1h-1z M22 22h1v1h-1z M8 23h2v1h-2z M23 23h1v2h-1z M25 23h1v1h-1z M12 24h2v1h-2z M24 24h1v7h-1z M14 25h1v1h-1z M15 26h1v3h-1z M6 29h1v1h-1z M14 29h1v2h-1z M7 30h1v1h-1z M13 30h1v1h-1z"/><path fill="#202040" d="M14 17h1v1h-1z M10 31h1v1h-1z"/><path fill="#e0c0e0" d="M8 18h1v1h-1z M5 28h1v1h-1z"/><path fill="#100e0e0" d="M29 19h1v1h-1z M14 23h1v1h-1z M16 25h1v1h-1z"/><path fill="#604060" d="M6 22h1v1h-1z"/><path fill="#404060" d="M12 23h1v1h-1z M25 24h1v1h-1z"/><path fill="#606080" d="M13 25h1v1h-1z"/><path fill="#a080a0" d="M7 31h1v1h-1z"/><path fill="#402040" d="M11 31h1v1h-1z"/></svg>